# xmcd
# Copyright (C) 1995-1998 Ti Kan
#
# Track frame offsets:
#       150
#       18061
#       30709
#       45984
#
# Disc length: 840 seconds
#
# Revision: 0
# Processed by: cddbd v1.5.2PL0 Copyright (c) Steve Scherf et al.
# Submitted via: CD-Transfer v1.0
#
DISCID=1f034604
DTITLE=Peters - Be Your Own Dog
DYEAR=06
DGENRE=
TTITLE0=Broken-Hearted
TTITLE1=Vao
TTITLE2=Princes Of All
TTITLE3=Misunderstanding
EXTD=
EXTT0=
EXTT1=
EXTT2=
EXTT3=
PLAYORDER=
